<svg width="24" height="24" viewBox="0 0 24 24" fill="none" xmlns="http://www.w3.org/2000/svg">
<path fill-rule="evenodd" clip-rule="evenodd" d="M12.0076 2C6.94228 2 2.84748 6.12498 2.84748 11.2281C2.84748 15.3074 5.47116 18.7604 9.11089 19.9825C9.56595 20.0744 9.73264 19.7839 9.73264 19.5396C9.73264 19.3257 9.71764 18.5924 9.71764 17.8283C7.16953 18.3784 6.6389 16.7283 6.6389 16.7283C6.2294 15.6588 5.62266 15.3839 5.62266 15.3839C4.78866 14.8186 5.68341 14.8186 5.68341 14.8186C6.60853 14.8797 7.09396 15.7658 7.09396 15.7658C7.91277 17.1713 9.23221 16.7742 9.76302 16.5297C9.83877 15.9338 10.0816 15.5213 10.3394 15.2922C8.30708 15.0783 6.16884 14.2838 6.16884 10.7392C6.16884 9.73078 6.53259 8.90578 7.10896 8.26416C7.01803 8.03504 6.69947 7.0876 7.20009 5.81955C7.20009 5.81955 7.97352 5.57505 9.71745 6.76679C10.4641 6.56479 11.2341 6.46203 12.0076 6.46117C12.781 6.46117 13.5694 6.56823 14.2975 6.76679C16.0416 5.57505 16.8151 5.81955 16.8151 5.81955C17.3157 7.0876 16.9969 8.03504 16.906 8.26416C17.4975 8.90578 17.8463 9.73078 17.8463 10.7392C17.8463 14.2838 15.7081 15.0629 13.6606 15.2922C13.9943 15.5824 14.2823 16.1324 14.2823 17.0033C14.2823 18.2408 14.2673 19.234 14.2673 19.5394C14.2673 19.7839 14.4342 20.0744 14.8891 19.9827C18.5288 18.7602 21.1525 15.3074 21.1525 11.2281C21.1675 6.12498 17.0577 2 12.0076 2Z" fill="white"/>
</svg>
