<svg width="24" height="24" viewBox="0 0 24 24" fill="none" xmlns="http://www.w3.org/2000/svg">
<path d="M12.4004 2.63721C9.95432 2.63721 9.64734 2.64789 8.68662 2.69158C7.72779 2.73546 7.0733 2.88714 6.50062 3.10972C5.90825 3.33958 5.40575 3.64708 4.90513 4.14752C4.40414 4.64778 4.0964 5.14989 3.86561 5.74164C3.64231 6.31409 3.49032 6.96827 3.44717 7.92602C3.40421 8.88602 3.39294 9.19296 3.39294 11.6372C3.39294 14.0815 3.40383 14.3873 3.44736 15.3473C3.49146 16.3054 3.64326 16.9594 3.86579 17.5316C4.09603 18.1236 4.40375 18.6257 4.90456 19.126C5.40501 19.6266 5.9075 19.9348 6.4995 20.1647C7.07254 20.3873 7.72723 20.539 8.68587 20.5828C9.64659 20.6265 9.95337 20.6372 12.3993 20.6372C14.8455 20.6372 15.1516 20.6265 16.1123 20.5828C17.0711 20.539 17.7263 20.3873 18.2994 20.1647C18.8916 19.9348 19.3933 19.6266 19.8938 19.126C20.3948 18.6257 20.7025 18.1236 20.9333 17.5318C21.1547 16.9594 21.3067 16.3052 21.3517 15.3475C21.3949 14.3875 21.4061 14.0815 21.4061 11.6372C21.4061 9.19295 21.3949 8.88621 21.3517 7.92621C21.3067 6.96808 21.1547 6.31409 20.9333 5.74184C20.7025 5.14989 20.3948 4.64777 19.8938 4.14752C19.3928 3.64689 18.8918 3.33939 18.2988 3.10971C17.7246 2.88714 17.0698 2.73546 16.111 2.69158C15.1502 2.64789 14.8444 2.63721 12.3976 2.63721H12.4004ZM11.5924 4.25682C11.8322 4.25645 12.0998 4.25909 12.4004 4.25909C14.8052 4.25909 15.0902 4.26771 16.0398 4.31083C16.918 4.35096 17.3946 4.49758 17.7121 4.62077C18.1324 4.78389 18.432 4.9789 18.7471 5.29389C19.0623 5.6089 19.2575 5.9089 19.4211 6.32889C19.5444 6.64576 19.6913 7.12202 19.7313 7.99952C19.7744 8.94827 19.7838 9.23327 19.7838 11.6351C19.7838 14.037 19.7744 14.322 19.7313 15.2708C19.6911 16.1483 19.5444 16.6245 19.4211 16.9414C19.2579 17.3614 19.0623 17.6605 18.7471 17.9753C18.4319 18.2903 18.1326 18.4853 17.7121 18.6484C17.395 18.7721 16.918 18.9184 16.0398 18.9585C15.0904 19.0016 14.8052 19.011 12.4004 19.011C9.99541 19.011 9.71039 19.0016 8.76093 18.9585C7.88278 18.918 7.40618 18.7714 7.0885 18.6482C6.66819 18.4851 6.36796 18.2901 6.05273 17.9751C5.7375 17.6601 5.54236 17.3608 5.37873 16.9406C5.25545 16.6238 5.10853 16.1475 5.06857 15.27C5.02541 14.3213 5.01677 14.0363 5.01677 11.6329C5.01677 9.22953 5.02541 8.94602 5.06857 7.99727C5.10872 7.11977 5.25545 6.64352 5.37873 6.32627C5.54197 5.90627 5.7375 5.60627 6.05273 5.29127C6.36796 4.97627 6.66819 4.78127 7.0885 4.61777C7.40599 4.49402 7.88278 4.34778 8.76093 4.30745C9.59179 4.26995 9.91379 4.25871 11.5924 4.25682ZM17.2081 5.75309C16.6114 5.75309 16.1273 6.23665 16.1273 6.83308C16.1273 7.42933 16.6114 7.91309 17.2081 7.91309C17.8048 7.91309 18.2889 7.42933 18.2889 6.83308C18.2889 6.23683 17.8048 5.75309 17.2081 5.75309ZM12.4002 7.01533C9.84586 7.01533 7.77508 9.08477 7.77508 11.6372C7.77508 14.1896 9.84604 16.2581 12.4004 16.2581C14.9547 16.2581 17.0249 14.1896 17.0249 11.6372C17.0249 9.08477 14.9545 7.01533 12.4002 7.01533ZM12.4004 8.63721C14.0584 8.63721 15.4026 9.98027 15.4026 11.6372C15.4026 13.294 14.0584 14.6372 12.4004 14.6372C10.7422 14.6372 9.39815 13.294 9.39815 11.6372C9.39815 9.98027 10.7422 8.63721 12.4004 8.63721Z" fill="white"/>
</svg>
