<svg width="24" height="24" viewBox="0 0 24 24" fill="none" xmlns="http://www.w3.org/2000/svg">
<path fill-rule="evenodd" clip-rule="evenodd" d="M3.05674 3.28941C3.05674 2.57748 3.6485 2 4.37852 2H19.6215C20.3515 2 20.9433 2.57748 20.9433 3.28941V18.7106C20.9433 19.4228 20.3515 20 19.6215 20H4.37852C3.6485 20 3.05674 19.4228 3.05674 18.7106V3.28941ZM8.4787 17.0679V8.93986H5.7771V17.0679H8.4787ZM7.12783 7.83012C8.06994 7.83012 8.65637 7.20598 8.65637 6.42598C8.63881 5.62843 8.06999 5.02161 7.14576 5.02161C6.22162 5.02161 5.6174 5.62843 5.6174 6.42598C5.6174 7.20598 6.22121 7.83012 7.12783 7.83012ZM12.6752 17.0679H9.97358C9.97358 17.0679 10.0091 9.70254 9.97365 8.93986H12.6752V10.0906C12.6691 10.1 12.6631 10.1094 12.6572 10.1186H12.6752V10.0906C13.0343 9.53679 13.6768 8.74913 15.1099 8.74913C16.8874 8.74913 18.2202 9.91082 18.2202 12.4074V17.0679H15.5188V12.7196C15.5188 11.6269 15.1278 10.8815 14.1502 10.8815C13.4039 10.8815 12.9593 11.3842 12.764 11.8696C12.6927 12.0432 12.6752 12.2859 12.6752 12.5288V17.0679Z" fill="white"/>
</svg>
