<svg width="24" height="24" viewBox="0 0 24 24" fill="none" xmlns="http://www.w3.org/2000/svg">
<path d="M20.8082 7.48105C20.8217 7.67634 20.8217 7.87163 20.8217 8.06872C20.8217 14.074 16.25 21 7.89041 21V20.9964C5.42097 21 3.00282 20.2926 0.923949 18.9589C1.28303 19.0021 1.6439 19.0237 2.00568 19.0246C4.05215 19.0264 6.04013 18.3398 7.65012 17.0753C5.70535 17.0384 3.99995 15.7704 3.40419 13.9192C4.08545 14.0506 4.78741 14.0236 5.45606 13.841C3.3358 13.4126 1.81039 11.5497 1.81039 9.38623V9.32864C2.44215 9.68051 3.14951 9.8758 3.87306 9.8974C1.87609 8.56278 1.26053 5.90615 2.46645 3.82908C4.77391 6.6684 8.17839 8.3945 11.8331 8.57718C11.4668 6.99868 11.9672 5.34459 13.1479 4.23496C14.9784 2.51427 17.8573 2.60246 19.578 4.43205C20.5958 4.23136 21.5713 3.85788 22.4641 3.32872C22.1248 4.38075 21.4148 5.27439 20.4662 5.84226C21.3671 5.73606 22.2472 5.49488 23.0761 5.1268C22.4659 6.04114 21.6973 6.83759 20.8082 7.48105Z" fill="white"/>
</svg>
